<svg width="38" height="38" viewBox="0 0 38 38" fill="none" xmlns="http://www.w3.org/2000/svg">
<g clip-path="url(#clip0_354_632)">
<path d="M13.3313 33.4892C12.3596 33.4892 11.5714 34.278 11.5714 35.2506C11.5714 36.2231 12.3596 37.012 13.3313 37.012C14.303 37.012 15.0911 36.2231 15.0911 35.2506C15.0911 34.278 14.303 33.4892 13.3313 33.4892Z" fill="white"/>
<path d="M24.3413 33.4892C23.3696 33.4892 22.5814 34.278 22.5814 35.2506C22.5814 36.2231 23.3696 37.012 24.3413 37.012C25.313 37.012 26.1012 36.2231 26.1012 35.2506C26.1012 34.278 25.313 33.4892 24.3413 33.4892Z" fill="white"/>
<path d="M25.2707 20.7046C24.9117 20.7767 24.5383 20.6938 24.2432 20.4768L20.1134 18.1679L17.5159 21.9834C17.2946 22.4588 16.824 22.738 16.3328 22.738C16.1483 22.738 15.9612 22.6984 15.783 22.6155C15.1298 22.3111 14.8473 21.534 15.1514 20.8811L18.421 15.6222C18.5857 15.2674 18.9015 15.0062 19.2794 14.909C19.6582 14.8117 20.0603 14.89 20.3752 15.1215L24.6354 17.5267L27.5047 12.7639H9.61809L7.52172 8.25599C7.32198 7.82734 6.89281 7.55359 6.42046 7.55359H1.21463C0.543436 7.55359 0 8.0975 0 8.76928C0 9.44106 0.543436 9.98497 1.21463 9.98497H5.64579L7.74216 14.4929C7.74216 14.4929 7.74396 14.4965 7.74486 14.4992C7.74486 14.5001 7.74486 14.5019 7.74666 14.5028L13.2935 26.1644L11.0622 30.9867C10.8876 31.3631 10.9173 31.8025 11.1404 32.1519C11.3636 32.5013 11.7495 32.7129 12.1643 32.7129H26.4349C27.1061 32.7129 27.6495 32.169 27.6495 31.4972C27.6495 30.8255 27.1061 30.2816 26.4349 30.2816H14.0654L15.5113 27.1577C15.5509 27.073 15.5779 26.9857 15.5968 26.8974H28.7733C29.2528 26.8974 29.6883 26.6147 29.8827 26.1761L35.0831 14.4749C35.2504 14.0985 35.2162 13.6635 34.9922 13.3187C34.7682 12.9738 34.3849 12.7648 33.9737 12.7648H30.5494L26.1308 20.1004C25.9418 20.4147 25.6287 20.6344 25.2698 20.7064L25.2707 20.7046Z" fill="white"/>
<path d="M37.9416 7.53922L36.0125 1.76335C35.9154 1.47158 35.7039 1.23205 35.4268 1.09967C35.1497 0.967296 34.8303 0.952887 34.5424 1.06005L28.8462 3.18435C28.3226 3.37976 28.0194 3.92727 28.1309 4.47478C28.2425 5.02229 28.7355 5.40681 29.2943 5.3816L32.0276 5.25823L27.5056 12.7649H30.5512L34.4047 6.36855L35.9532 8.5703C36.0665 8.72609 36.2141 8.84496 36.3778 8.9233C36.69 9.07279 37.0634 9.07639 37.3882 8.90799C37.8849 8.65135 38.1197 8.07052 37.9425 7.54012L37.9416 7.53922Z" fill="white"/>
</g>
<defs>
<clipPath id="clip0_354_632">
<rect width="38" height="36.024" fill="white" transform="translate(0 0.987976)"/>
</clipPath>
</defs>
</svg>
